<?xml version="1.0" encoding="utf-8"?>
<!-- Generator: Adobe Illustrator 16.0.0, SVG Export Plug-In . SVG Version: 6.00 Build 0)  -->
<!DOCTYPE svg PUBLIC "-//W3C//DTD SVG 1.1//EN" "http://www.w3.org/Graphics/SVG/1.1/DTD/svg11.dtd">
<svg version="1.1" id="Layer_1" xmlns="http://www.w3.org/2000/svg" xmlns:xlink="http://www.w3.org/1999/xlink" x="0px" y="0px"
	 width="1002.276px" height="21.789px" viewBox="21.724 501.105 1002.276 21.789"
	 enable-background="new 21.724 501.105 1002.276 21.789" xml:space="preserve">
<polygon fill="#3EC0C8" points="108.898,522.852 87.152,501.105 87.024,501.105 65.322,522.852 65.364,522.895 108.855,522.895 "/>
<polygon fill="#3EC0C8" points="65.322,522.852 43.576,501.105 43.448,501.105 21.745,522.852 21.788,522.895 65.279,522.895 "/>
<polygon fill="#3EC0C8" points="239.584,522.852 217.839,501.105 217.753,501.105 196.008,522.852 196.05,522.895 239.541,522.895 
	"/>
<polygon fill="#3EC0C8" points="196.008,522.852 174.262,501.105 174.177,501.105 152.432,522.852 152.474,522.895 195.965,522.895 
	"/>
<polygon fill="#3EC0C8" points="152.389,522.895 108.898,522.852 130.601,501.105 130.643,501.105 130.643,501.105 130.643,501.105 
	130.686,501.105 152.432,522.852 "/>
<polygon fill="#3EC0C8" points="370.27,522.852 348.524,501.105 348.439,501.105 326.693,522.852 326.736,522.895 370.228,522.895 
	"/>
<polygon fill="#3EC0C8" points="326.693,522.852 304.948,501.105 304.863,501.105 283.118,522.852 283.16,522.895 326.651,522.895 
	"/>
<polygon fill="#3EC0C8" points="283.075,522.895 239.627,522.895 239.584,522.852 261.329,501.105 261.329,501.105 261.329,501.105 
	261.329,501.105 261.372,501.105 283.118,522.852 "/>
<polygon fill="#3EC0C8" points="500.956,522.852 479.211,501.105 479.125,501.105 457.38,522.852 457.423,522.895 500.913,522.895 
	"/>
<polygon fill="#3EC0C8" points="457.38,522.852 435.635,501.105 435.549,501.105 413.804,522.852 413.847,522.895 457.337,522.895 
	"/>
<polygon fill="#3EC0C8" points="413.761,522.895 370.313,522.895 370.27,522.852 392.016,501.105 392.016,501.105 392.059,501.105 
	413.804,522.852 "/>
<polygon fill="#3EC0C8" points="631.643,522.852 609.939,501.105 609.812,501.105 588.066,522.852 588.108,522.895 631.6,522.895 
	"/>
<polygon fill="#3EC0C8" points="588.066,522.852 566.363,501.105 566.235,501.105 544.489,522.852 544.532,522.895 588.023,522.895 
	"/>
<polygon fill="#3EC0C8" points="544.447,522.895 500.999,522.895 500.956,522.852 522.701,501.105 522.701,501.105 522.787,501.105 
	544.489,522.852 "/>
<polygon fill="#3EC0C8" points="762.328,522.852 740.626,501.105 740.497,501.105 718.752,522.852 718.795,522.895 762.328,522.895 
	"/>
<polygon fill="#3EC0C8" points="718.752,522.852 697.05,501.105 696.921,501.105 675.219,522.852 675.262,522.895 718.752,522.895 
	"/>
<polygon fill="#3EC0C8" points="675.176,522.895 631.643,522.852 653.388,501.105 653.431,501.105 653.431,501.105 653.431,501.105 
	653.473,501.105 675.219,522.852 "/>
<polygon fill="#3EC0C8" points="893.057,522.852 871.312,501.105 871.184,501.105 849.48,522.852 849.523,522.895 893.015,522.895 
	"/>
<polygon fill="#3EC0C8" points="849.48,522.852 827.735,501.105 827.607,501.105 805.904,522.852 805.947,522.895 849.438,522.895 
	"/>
<polygon fill="#005A8D" points="130.601,501.105 87.152,501.105 108.898,522.852 "/>
<polygon fill="#005A8D" points="87.024,501.105 43.576,501.105 65.322,522.852 "/>
<polygon fill="#005A8D" points="43.448,501.105 21.724,501.105 21.745,522.852 "/>
<polygon fill="#005A8D" points="261.329,501.105 217.839,501.105 239.584,522.852 "/>
<polygon fill="#005A8D" points="217.753,501.105 174.262,501.105 196.008,522.852 "/>
<polygon fill="#005A8D" points="174.177,501.105 130.686,501.105 152.432,522.852 "/>
<polygon fill="#005A8D" points="392.016,501.105 348.524,501.105 370.27,522.852 "/>
<polygon fill="#005A8D" points="348.439,501.105 304.948,501.105 326.693,522.852 "/>
<polygon fill="#005A8D" points="304.863,501.105 261.372,501.105 283.118,522.852 "/>
<polygon fill="#005A8D" points="522.701,501.105 479.211,501.105 500.956,522.852 "/>
<polygon fill="#005A8D" points="479.125,501.105 435.635,501.105 457.38,522.852 "/>
<polygon fill="#005A8D" points="435.549,501.105 392.059,501.105 413.804,522.852 "/>
<polygon fill="#005A8D" points="653.388,501.105 609.939,501.105 631.643,522.852 "/>
<polygon fill="#005A8D" points="609.812,501.105 566.363,501.105 588.066,522.852 "/>
<polygon fill="#005A8D" points="566.235,501.105 522.787,501.105 544.489,522.852 "/>
<polygon fill="#005A8D" points="784.073,501.105 740.626,501.105 762.328,522.852 "/>
<polygon fill="#005A8D" points="740.497,501.105 697.05,501.105 718.752,522.852 "/>
<polygon fill="#005A8D" points="696.921,501.105 653.473,501.105 675.219,522.852 "/>
<polygon fill="#005A8D" points="871.184,501.105 827.735,501.105 849.48,522.852 "/>
<polygon fill="#005A8D" points="827.607,501.105 784.159,501.105 805.904,522.852 "/>
<polygon fill="#3EC0C8" points="805.861,522.895 762.371,522.895 762.328,522.852 784.073,501.105 784.116,501.105 784.116,501.105 
	784.116,501.105 784.159,501.105 805.904,522.852 "/>
<polygon fill="#3EC0C8" points="936.719,522.852 914.974,501.105 914.888,501.105 893.143,522.852 893.186,522.895 936.676,522.895 
	"/>
<polygon fill="#005A8D" points="914.888,501.105 871.397,501.105 893.143,522.852 "/>
<polygon fill="#3EC0C8" points="980.381,522.852 958.636,501.105 958.55,501.105 936.805,522.852 936.848,522.895 980.338,522.895 
	"/>
<polygon fill="#005A8D" points="958.55,501.105 915.06,501.105 936.805,522.852 "/>
<polygon fill="#3EC0C8" points="1024,522.852 1002.255,501.105 1002.169,501.105 980.424,522.852 980.467,522.895 1023.957,522.895 
	"/>
<polygon fill="#005A8D" points="1002.169,501.105 958.679,501.105 980.424,522.852 "/>
<polygon fill="#005A8D" points="1024,522.84 1024,501.117 1002.254,501.138 "/>
</svg>
