<svg xmlns="http://www.w3.org/2000/svg" viewBox="0 0 239.22 5.09"><defs><style>.cls-1{fill:#3ec0c8;}.cls-2{fill:#005a8d;}</style></defs><g id="Layer_2" data-name="Layer 2"><g id="Layer_1-2" data-name="Layer 1"><polygon class="cls-1" points="25.44 5.08 20.36 0 20.33 0 15.26 5.08 15.27 5.09 25.43 5.09 25.44 5.08"/><polygon class="cls-1" points="15.26 5.08 10.18 0 10.15 0 5.08 5.08 5.09 5.09 15.25 5.09 15.26 5.08"/><polygon class="cls-1" points="55.97 5.08 50.89 0 50.87 0 45.79 5.08 45.8 5.09 55.96 5.09 55.97 5.08"/><polygon class="cls-1" points="45.79 5.08 40.71 0 40.69 0 35.61 5.08 35.62 5.09 45.78 5.09 45.79 5.08"/><polygon class="cls-1" points="35.6 5.09 25.44 5.08 30.51 0 30.52 0 30.52 0 30.52 0 30.53 0 35.61 5.08 35.6 5.09"/><polygon class="cls-1" points="86.5 5.08 81.42 0 81.4 0 76.32 5.08 76.33 5.09 86.49 5.09 86.5 5.08"/><polygon class="cls-1" points="76.32 5.08 71.24 0 71.22 0 66.14 5.08 66.15 5.09 76.31 5.09 76.32 5.08"/><polygon class="cls-1" points="66.13 5.09 55.98 5.09 55.97 5.08 61.05 0 61.05 0 61.05 0 61.05 0 61.06 0 66.14 5.08 66.13 5.09"/><polygon class="cls-1" points="117.03 5.08 111.95 0 111.93 0 106.85 5.08 106.86 5.09 117.02 5.09 117.03 5.08"/><polygon class="cls-1" points="106.85 5.08 101.77 0 101.75 0 96.67 5.08 96.68 5.09 106.84 5.09 106.85 5.08"/><polygon class="cls-1" points="96.66 5.09 86.51 5.09 86.5 5.08 91.58 0 91.58 0 91.59 0 96.67 5.08 96.66 5.09"/><polygon class="cls-1" points="147.56 5.08 142.49 0 142.46 0 137.38 5.08 137.39 5.09 147.55 5.09 147.56 5.08"/><polygon class="cls-1" points="137.38 5.08 132.31 0 132.28 0 127.2 5.08 127.21 5.09 137.37 5.09 137.38 5.08"/><polygon class="cls-1" points="127.19 5.09 117.04 5.09 117.03 5.08 122.11 0 122.11 0 122.13 0 127.2 5.08 127.19 5.09"/><polygon class="cls-1" points="178.09 5.08 173.02 0 172.99 0 167.91 5.08 167.92 5.09 178.09 5.09 178.09 5.08"/><polygon class="cls-1" points="167.91 5.08 162.84 0 162.81 0 157.74 5.08 157.75 5.09 167.91 5.09 167.91 5.08"/><polygon class="cls-1" points="157.73 5.09 147.56 5.08 152.64 0 152.65 0 152.65 0 152.65 0 152.66 0 157.74 5.08 157.73 5.09"/><polygon class="cls-1" points="208.63 5.08 203.55 0 203.52 0 198.45 5.08 198.46 5.09 208.62 5.09 208.63 5.08"/><polygon class="cls-1" points="198.45 5.08 193.37 0 193.34 0 188.27 5.08 188.28 5.09 198.44 5.09 198.45 5.08"/><polygon class="cls-2" points="30.51 0 20.36 0 25.44 5.08 30.51 0"/><polygon class="cls-2" points="20.33 0 10.18 0 15.26 5.08 20.33 0"/><polygon class="cls-2" points="10.15 0 0 0 5.08 5.08 10.15 0"/><polygon class="cls-2" points="61.05 0 50.89 0 55.97 5.08 61.05 0"/><polygon class="cls-2" points="50.87 0 40.71 0 45.79 5.08 50.87 0"/><polygon class="cls-2" points="40.69 0 30.53 0 35.61 5.08 40.69 0"/><polygon class="cls-2" points="91.58 0 81.42 0 86.5 5.08 91.58 0"/><polygon class="cls-2" points="81.4 0 71.24 0 76.32 5.08 81.4 0"/><polygon class="cls-2" points="71.22 0 61.06 0 66.14 5.08 71.22 0"/><polygon class="cls-2" points="122.11 0 111.95 0 117.03 5.08 122.11 0"/><polygon class="cls-2" points="111.93 0 101.77 0 106.85 5.08 111.93 0"/><polygon class="cls-2" points="101.75 0 91.59 0 96.67 5.08 101.75 0"/><polygon class="cls-2" points="152.64 0 142.49 0 147.56 5.08 152.64 0"/><polygon class="cls-2" points="142.46 0 132.31 0 137.38 5.08 142.46 0"/><polygon class="cls-2" points="132.28 0 122.13 0 127.2 5.08 132.28 0"/><polygon class="cls-2" points="183.17 0 173.02 0 178.09 5.08 183.17 0"/><polygon class="cls-2" points="172.99 0 162.84 0 167.91 5.08 172.99 0"/><polygon class="cls-2" points="162.81 0 152.66 0 157.74 5.08 162.81 0"/><polygon class="cls-2" points="203.52 0 193.37 0 198.45 5.08 203.52 0"/><polygon class="cls-2" points="193.34 0 183.19 0 188.27 5.08 193.34 0"/><polygon class="cls-1" points="188.26 5.09 178.1 5.09 178.09 5.08 183.17 0 183.18 0 183.18 0 183.18 0 183.19 0 188.27 5.08 188.26 5.09"/><polygon class="cls-1" points="218.83 5.08 213.75 0 213.73 0 208.65 5.08 208.66 5.09 218.82 5.09 218.83 5.08"/><polygon class="cls-2" points="213.73 0 203.57 0 208.65 5.08 213.73 0"/><polygon class="cls-1" points="229.03 5.08 223.95 0 223.93 0 218.85 5.08 218.86 5.09 229.02 5.09 229.03 5.08"/><polygon class="cls-2" points="223.93 0 213.77 0 218.85 5.08 223.93 0"/><polygon class="cls-1" points="239.22 5.08 234.14 0 234.12 0 229.04 5.08 229.05 5.09 239.21 5.09 239.22 5.08"/><polygon class="cls-2" points="234.12 0 223.96 0 229.04 5.08 234.12 0"/></g></g></svg>